<svg width="108" height="46" viewBox="0 0 108 46" fill="none" xmlns="http://www.w3.org/2000/svg">
<g filter="url(#filter0_d_82_71)">
<path d="M21.805 12.0884V3C11.5436 5.58571 5.90006 12.0884 6.00134 18.2419C6.10262 24.3955 12.0237 30.307 21.805 34.2412V23.2594L34.8734 34.2412L39.6348 30.1704L29.3016 20.4193L39.6348 6.78681L34.1643 3L21.805 12.0884Z" stroke="#028090" stroke-width="4" shape-rendering="crispEdges"/>
</g>
<path d="M56.6996 25V13.8H58.2676L62.2996 21.608L66.2996 13.8H67.8836V25H66.5396V16.2L62.7956 23.4H61.7876L58.0436 16.216V25H56.6996ZM73.7345 25.192C72.9772 25.192 72.3052 25.0213 71.7185 24.68C71.1318 24.328 70.6678 23.8427 70.3265 23.224C69.9958 22.6053 69.8305 21.8747 69.8305 21.032C69.8305 20.2 69.9958 19.4747 70.3265 18.856C70.6572 18.2267 71.1158 17.7413 71.7025 17.4C72.2998 17.048 72.9878 16.872 73.7665 16.872C74.5345 16.872 75.1958 17.048 75.7505 17.4C76.3158 17.7413 76.7478 18.1947 77.0465 18.76C77.3452 19.3253 77.4945 19.9333 77.4945 20.584C77.4945 20.7013 77.4892 20.8187 77.4785 20.936C77.4785 21.0533 77.4785 21.1867 77.4785 21.336H71.1585C71.1905 21.944 71.3292 22.4507 71.5745 22.856C71.8305 23.2507 72.1452 23.5493 72.5185 23.752C72.9025 23.9547 73.3078 24.056 73.7345 24.056C74.2892 24.056 74.7532 23.928 75.1265 23.672C75.4998 23.416 75.7718 23.0693 75.9425 22.632H77.2705C77.0572 23.368 76.6465 23.9813 76.0385 24.472C75.4412 24.952 74.6732 25.192 73.7345 25.192ZM73.7345 18.008C73.0945 18.008 72.5238 18.2053 72.0225 18.6C71.5318 18.984 71.2492 19.5493 71.1745 20.296H76.1665C76.1345 19.5813 75.8892 19.0213 75.4305 18.616C74.9718 18.2107 74.4065 18.008 73.7345 18.008ZM79.2759 25V17.064H80.4919L80.5719 18.488C80.8279 17.9867 81.1959 17.592 81.6759 17.304C82.1559 17.016 82.6999 16.872 83.3079 16.872C84.2465 16.872 84.9932 17.16 85.5479 17.736C86.1132 18.3013 86.3959 19.176 86.3959 20.36V25H85.0519V20.504C85.0519 18.8507 84.3692 18.024 83.0039 18.024C82.3212 18.024 81.7505 18.2747 81.2919 18.776C80.8439 19.2667 80.6199 19.9707 80.6199 20.888V25H79.2759ZM91.3281 25.192C90.3895 25.192 89.6428 24.9093 89.0881 24.344C88.5335 23.768 88.2561 22.888 88.2561 21.704V17.064H89.6001V21.56C89.6001 23.2133 90.2775 24.04 91.6321 24.04C92.3255 24.04 92.8961 23.7947 93.3441 23.304C93.8028 22.8027 94.0321 22.0933 94.0321 21.176V17.064H95.3761V25H94.1601L94.0641 23.576C93.8188 24.0773 93.4508 24.472 92.9601 24.76C92.4801 25.048 91.9361 25.192 91.3281 25.192ZM91.0401 16.408V15.4L94.4001 13.368V14.536L91.0401 16.408Z" fill="#05668D"/>
<g filter="url(#filter1_d_82_71)">
<ellipse cx="14.3425" cy="13.5858" rx="1.98631" ry="1.80734" fill="#028090"/>
</g>
<defs>
<filter id="filter0_d_82_71" x="0" y="0.433533" width="46.6266" height="44.7678" filterUnits="userSpaceOnUse" color-interpolation-filters="sRGB">
<feFlood flood-opacity="0" result="BackgroundImageFix"/>
<feColorMatrix in="SourceAlpha" type="matrix" values="0 0 0 0 0 0 0 0 0 0 0 0 0 0 0 0 0 0 127 0" result="hardAlpha"/>
<feOffset dy="4"/>
<feGaussianBlur stdDeviation="2"/>
<feComposite in2="hardAlpha" operator="out"/>
<feColorMatrix type="matrix" values="0 0 0 0 0 0 0 0 0 0 0 0 0 0 0 0 0 0 0.25 0"/>
<feBlend mode="normal" in2="BackgroundImageFix" result="effect1_dropShadow_82_71"/>
<feBlend mode="normal" in="SourceGraphic" in2="effect1_dropShadow_82_71" result="shape"/>
</filter>
<filter id="filter1_d_82_71" x="8.3562" y="11.7785" width="11.9727" height="11.6147" filterUnits="userSpaceOnUse" color-interpolation-filters="sRGB">
<feFlood flood-opacity="0" result="BackgroundImageFix"/>
<feColorMatrix in="SourceAlpha" type="matrix" values="0 0 0 0 0 0 0 0 0 0 0 0 0 0 0 0 0 0 127 0" result="hardAlpha"/>
<feOffset dy="4"/>
<feGaussianBlur stdDeviation="2"/>
<feComposite in2="hardAlpha" operator="out"/>
<feColorMatrix type="matrix" values="0 0 0 0 0 0 0 0 0 0 0 0 0 0 0 0 0 0 0.25 0"/>
<feBlend mode="normal" in2="BackgroundImageFix" result="effect1_dropShadow_82_71"/>
<feBlend mode="normal" in="SourceGraphic" in2="effect1_dropShadow_82_71" result="shape"/>
</filter>
</defs>
</svg>
